<?xml version="1.0" encoding="utf-8"?><svg xmlns="http://www.w3.org/2000/svg" xmlns:xlink="http://www.w3.org/1999/xlink"><symbol fill="none" viewBox="0 0 11 7" id="arrow" xmlns="http://www.w3.org/2000/svg"><path d="M1.5 1l4 4 4-4" stroke="#373334" stroke-width="2"/></symbol><symbol fill="none" viewBox="0 0 28 28" id="arrow-link" xmlns="http://www.w3.org/2000/svg"><path d="M18.205 8.242l.946 12.958 2.544-2.544-.972-12.828-11.205-.45L7 7.894l11.205.347z" fill="#373334"/><path d="M17.788 7.135L5.014 19.909l2.012 2.012L19.8 9.147l-2.012-2.012z" fill="#373334"/></symbol><symbol fill="none" viewBox="0 0 16 17" id="attach" xmlns="http://www.w3.org/2000/svg"><path d="M14.41 13.147h0c.708 1.024.38 2.253-.746 2.785l.746-2.785zm0 0L7.401 3.018h0m7.01 10.13L7.4 3.017m0 0a3.535 3.535 0 00-.642-.7c.192.173.364.368.512.581h0m.13.119L7.27 2.9m0 0l7.009 10.129h0M7.271 2.899l7.01 10.13m0 0c.727 1.053.369 2.393-.789 2.94v.001m.788-2.941l-.788 2.941m0 0a2.296 2.296 0 01-.612.188m.612-.188l-.612.188m0 0c.277-.035.541-.111.784-.226l-.784.226zM2.55 1.718h0c-.779.369-1.294.975-1.488 1.697-.193.722-.05 1.505.44 2.213h0L7.02 13.6c.007.01.03.031.07.042l.008.002-5.466-7.899s0 0 0 0c-.48-.693-.648-1.511-.438-2.296.21-.784.766-1.409 1.528-1.77h0c.235-.11.481-.193.735-.247a3.535 3.535 0 00-.907.285zm7.72 13.389h-.001L5.562 8.303a1.231 1.231 0 01-.189-1.017c.096-.357.348-.632.673-.786.084-.04.171-.07.26-.093-.15.023-.295.066-.432.131-.342.162-.554.42-.632.713-.078.288-.02.629.19.934h0l4.707 6.802c.152.22.344.418.566.587a2.298 2.298 0 01-.436-.468zM8.057 7.124a1.567 1.567 0 00-.309-.33 1.405 1.405 0 01.18.212l3.213 4.645h0a.125.125 0 00.079.044L8.058 7.124z" fill="#fff" stroke="#fff"/></symbol><symbol fill="none" viewBox="0 0 16 16" id="fb" xmlns="http://www.w3.org/2000/svg"><g clip-path="url(#dclip0_2_191)"><path d="M16 8a8 8 0 10-9.25 7.903v-5.59H4.719V8H6.75V6.237c0-2.005 1.194-3.112 3.022-3.112.875 0 1.79.156 1.79.156V5.25h-1.008c-.994 0-1.304.617-1.304 1.25V8h2.219l-.355 2.313H9.25v5.59A8.002 8.002 0 0016 8z" fill="#373334"/></g><defs><clipPath id="dclip0_2_191"><path fill="#fff" d="M0 0h16v16H0z"/></clipPath></defs></symbol><symbol fill="none" viewBox="0 0 15 15" id="inst" xmlns="http://www.w3.org/2000/svg"><path d="M15 7.5v3.249a4.202 4.202 0 01-2.724 3.896 5.62 5.62 0 01-2.115.353H4.524a4.495 4.495 0 01-2.564-.733 4.152 4.152 0 01-1.843-2.523A4.405 4.405 0 010 10.764V4.35c0-1.101.308-2.09 1.092-2.888A4.495 4.495 0 013.924.046C4.598-.014 5.273.003 5.934 0h4.306c.973 0 1.908.157 2.74.696a4.166 4.166 0 011.88 2.472c.087.353.131.715.133 1.079.016 1.083 0 2.166 0 3.25l.007.001zm-13.876 0v3.28c0 1.27.674 2.13 1.753 2.72a3.482 3.482 0 001.694.37h5.806a3.738 3.738 0 001.919-.492c1.016-.589 1.573-1.456 1.573-2.636a460.4 460.4 0 000-6.575c0-1.297-.735-2.153-1.843-2.721a3.425 3.425 0 00-1.598-.328H4.655a3.779 3.779 0 00-1.78.393c-1.077.56-1.727 1.431-1.751 2.678-.027 1.104 0 2.207 0 3.31z" fill="#373334"/><path d="M1.124 7.5v3.28c0 1.27.674 2.13 1.753 2.72a3.482 3.482 0 001.694.37h5.806a3.738 3.738 0 001.919-.492c1.016-.589 1.573-1.456 1.573-2.636a460.4 460.4 0 000-6.575c0-1.297-.735-2.153-1.843-2.721a3.425 3.425 0 00-1.598-.328H4.655a3.779 3.779 0 00-1.78.393c-1.077.56-1.727 1.431-1.751 2.678-.027 1.104 0 2.207 0 3.31z" fill="#373334"/><path d="M7.506 10.704a3.477 3.477 0 113.529-3.47 3.51 3.51 0 01-3.529 3.47zM5.108 7.226a2.404 2.404 0 102.405-2.36 2.396 2.396 0 00-2.405 2.36zM12.184 3.459a.74.74 0 11-.735-.766.764.764 0 01.735.766z" fill="#fff"/></symbol><symbol fill="none" viewBox="0 0 16 16" id="ok" xmlns="http://www.w3.org/2000/svg"><g clip-path="url(#fclip0_2_193)"><circle cx="8" cy="8" r="8" fill="#373334"/><path d="M9.77 12.659l-.46.131a4.887 4.887 0 01-2.889.352.823.823 0 01-.477-.237.877.877 0 01-.175-.788.8.8 0 01.854-.628c.255 0 .499.041.754.04a4.422 4.422 0 001.601-.388A4.611 4.611 0 0010.9 9.642c.162-.235.303-.484.422-.744.104-.236.278-.435.5-.568a.8.8 0 01.877.066.771.771 0 01.272 1.061 4.53 4.53 0 01-.726 1.334c-.315.381-.671.726-1.062 1.028l-.274.158.14.053 3.342.898a.793.793 0 01.629.71.897.897 0 01-.42.875.727.727 0 01-.572.063l-2.404-.623-.266-.103c-.078-.028-.114-.007-.137.08l-.358 1.34c-.123.46-.237.917-.412 1.395a.759.759 0 01-.912.527.908.908 0 01-.51-.291.74.74 0 01-.158-.676l.48-1.802.398-1.63.02-.134z" fill="#F2F2F2"/><path d="M5.527 4.005a3.443 3.443 0 013.832.248 3.456 3.456 0 01.166 5.342 3.442 3.442 0 01-3.81.476 3.455 3.455 0 01-1.454-1.386 3.443 3.443 0 01-.331-2.602 3.433 3.433 0 011.597-2.078zm.236 3.825a1.712 1.712 0 001.69.862 1.705 1.705 0 001.425-2.22 1.712 1.712 0 00-2.453-.974 1.705 1.705 0 00-.662 2.332z" fill="#F2F2F2"/></g><defs><clipPath id="fclip0_2_193"><path fill="#fff" d="M0 0h16v16H0z"/></clipPath></defs></symbol><symbol fill="none" viewBox="0 0 18 18" id="search" xmlns="http://www.w3.org/2000/svg"><path d="M13.21 11.619a7.264 7.264 0 001.415-4.306C14.625 3.28 11.345 0 7.312 0 3.28 0 0 3.28 0 7.313c0 4.032 3.28 7.312 7.312 7.312 1.611 0 3.097-.53 4.307-1.416L16.409 18 18 16.41l-4.79-4.791zm-5.898.756A5.068 5.068 0 012.25 7.313 5.068 5.068 0 017.312 2.25a5.068 5.068 0 015.063 5.063 5.068 5.068 0 01-5.063 5.062z" fill="#373334"/></symbol><symbol fill="none" viewBox="0 0 19 18" id="vk" xmlns="http://www.w3.org/2000/svg"><path d="M10.696 6.79c0 .455-.018.884-.02 1.308-.007.231.02.462.08.686a.69.69 0 00.232.364.226.226 0 00.202.039.855.855 0 00.328-.194 4.4 4.4 0 00.605-.683 12.922 12.922 0 001.542-2.801c.07-.167.139-.332.205-.503a.56.56 0 01.262-.303.645.645 0 01.24-.04h3.268c.09.012.178.036.262.071a.318.318 0 01.229.317c0 .18-.036.358-.105.523-.176.425-.398.83-.662 1.207-.492.749-1.051 1.448-1.577 2.163-.176.238-.341.484-.499.733a.719.719 0 00-.12.468c.022.16.096.31.21.424.191.204.386.406.59.597a16.284 16.284 0 011.543 1.57c.223.265.415.554.573.862a.952.952 0 01.078.262.475.475 0 01-.228.523c-.176.11-.378.172-.586.176-.775.02-1.55.015-2.322.06a1.946 1.946 0 01-1.361-.466 6.318 6.318 0 01-.788-.77c-.263-.285-.507-.573-.789-.845a1.787 1.787 0 00-.401-.296.466.466 0 00-.597.094c-.13.156-.22.341-.265.54a3.818 3.818 0 00-.14.926 2.33 2.33 0 01-.023.233.536.536 0 01-.368.432c-.127.053-.264.08-.402.081h-1.05a5.147 5.147 0 01-1.79-.343 6.874 6.874 0 01-2.69-1.832 16.757 16.757 0 01-1.944-2.597A36.726 36.726 0 01.054 5.292a.64.64 0 01-.05-.325.227.227 0 01.134-.194c.13-.065.272-.099.417-.099h2.612a.803.803 0 01.699.524c.225.594.497 1.17.811 1.722.341.615.725 1.205 1.148 1.767.144.208.322.39.526.54a.424.424 0 00.473.046.44.44 0 00.181-.209c.095-.218.154-.451.173-.688.058-.554.07-1.11.035-1.665a5.904 5.904 0 00-.103-.987c-.016-.081-.045-.16-.06-.241a.536.536 0 00-.284-.35 1.34 1.34 0 00-.596-.197c-.06 0-.082-.032-.056-.084a.575.575 0 01.09-.144c.192-.208.451-.343.733-.38.407-.07.82-.1 1.234-.091.46 0 .923 0 1.385.029.2.012.4.045.594.096a.7.7 0 01.562.66c.022.253.03.506.024.76-.006.342-.027.688-.04 1.007z" fill="#373334"/></symbol><symbol fill="none" viewBox="0 0 15 16" id="yt" xmlns="http://www.w3.org/2000/svg"><path d="M14.85 4.8s-.146-1.103-.597-1.587c-.571-.638-1.21-.641-1.503-.679-2.098-.162-5.247-.162-5.247-.162h-.006s-3.15 0-5.247.162c-.293.038-.932.041-1.503.679C.296 3.697.152 4.8.152 4.8S0 6.097 0 7.39v1.213c0 1.294.15 2.59.15 2.59s.146 1.104.594 1.588c.571.638 1.321.616 1.655.685 1.202.122 5.101.159 5.101.159s3.152-.006 5.25-.166c.293-.037.932-.04 1.503-.678.451-.484.598-1.587.598-1.587S15 9.9 15 8.604V7.39c0-1.294-.15-2.591-.15-2.591zm-8.9 5.275V5.578l4.052 2.256-4.052 2.241z" fill="#373334"/></symbol></svg>